<svg id="Capa_1" fill="white" enable-background="new 0 0 511.982 511.982" height="512" viewBox="0 0 511.982 511.982" width="512" xmlns="http://www.w3.org/2000/svg"><g><path d="m508.069 3.129c-2.401-2.54-5.954-3.641-9.372-2.904l-423.341 91.227c-3.58.771-6.452 3.438-7.486 6.95s-.066 7.31 2.523 9.898l106.808 106.751v115.931c0 3.356 1.684 6.489 4.483 8.341 1.661 1.099 3.583 1.659 5.518 1.659 1.325 0 2.657-.264 3.913-.798l78.068-33.201 113.735 113.674c1.9 1.899 4.453 2.928 7.07 2.927.853 0 1.713-.109 2.559-.333 3.442-.912 6.141-3.585 7.083-7.019l110.817-403.584c.926-3.37.024-6.98-2.378-9.519zm-279.577 248.679c-.563.529-1.064 1.122-1.491 1.766l-29.8 44.938v-82.077l217.588-139.437zm220.338-220.378-260.215 166.753-91.096-91.047zm-63.935 362.928-135.144-135.072 232.012-217.705z"/><path d="m112.229 415.629c-1.408-5.34-6.878-8.53-12.218-7.122-5.34 1.407-8.529 6.878-7.122 12.218.627 2.38.945 4.851.945 7.344 0 5.523 4.477 10 10 10s10-4.477 10-10c.001-4.212-.539-8.397-1.605-12.44z"/><path d="m56.437 400.164c5.232-.991 10.786-1.226 15.928.109.843.219 1.688.323 2.52.323 4.445 0 8.503-2.987 9.672-7.489 1.388-5.346-1.821-10.804-7.166-12.192-7.994-2.075-16.559-1.938-24.674-.402-5.427 1.027-8.993 6.259-7.966 11.686 1.028 5.425 6.258 8.988 11.686 7.965z"/><path d="m23.091 465.161c-2.328-5.009-8.277-7.181-13.283-4.854-5.009 2.328-7.182 8.274-4.854 13.283 3.401 7.318 8.064 13.896 13.861 19.55 1.945 1.896 4.464 2.841 6.981 2.841 2.601 0 5.2-1.009 7.16-3.018 3.856-3.954 3.777-10.285-.176-14.141-4.053-3.954-7.313-8.55-9.689-13.661z"/><path d="m8.302 439.009c.959.289 1.929.426 2.882.426 4.299 0 8.272-2.795 9.573-7.125 1.62-5.39 4.193-10.396 7.647-14.879 3.371-4.375 2.557-10.654-1.818-14.025s-10.654-2.557-14.025 1.818c-4.947 6.421-8.634 13.597-10.958 21.33-1.59 5.29 1.409 10.866 6.699 12.455z"/><path d="m81.479 490.798c-5.378.786-10.883 1.184-16.355 1.184-.72 0-1.437-.017-2.149-.049-5.509-.244-10.193 4.019-10.443 9.537-.25 5.517 4.019 10.192 9.537 10.443 1.001.045 2.026.069 3.05.069 6.442 0 12.919-.469 19.251-1.394 5.465-.798 9.248-5.875 8.45-11.34-.799-5.466-5.877-9.242-11.341-8.45z"/><path d="m132.88 469.187c-4.98 3.787-10.31 7.175-15.841 10.072-4.893 2.562-6.782 8.605-4.22 13.498 1.787 3.412 5.266 5.363 8.867 5.363 1.563 0 3.15-.368 4.631-1.143 6.52-3.414 12.8-7.407 18.667-11.869 4.396-3.343 5.251-9.617 1.908-14.013s-9.615-5.25-14.012-1.908z"/><path d="m180.757 420.402c-5.043-2.249-10.957.019-13.204 5.064-2.54 5.699-5.584 11.23-9.051 16.439-3.059 4.598-1.812 10.806 2.786 13.865 1.703 1.133 3.627 1.675 5.53 1.675 3.234 0 6.409-1.566 8.335-4.461 4.084-6.139 7.674-12.659 10.668-19.379 2.248-5.043-.019-10.955-5.064-13.203z"/><path d="m187.201 369.9c-5.523 0-10 4.477-10 10 0 3.061-.125 6.151-.371 9.186-.446 5.505 3.655 10.329 9.16 10.775.275.022.548.033.819.033 5.156 0 9.532-3.963 9.956-9.193.29-3.57.436-7.204.436-10.801 0-5.523-4.477-10-10-10z"/></g></svg>